<svg xmlns="http://www.w3.org/2000/svg" xmlns:xlink="http://www.w3.org/1999/xlink" width="64" zoomAndPan="magnify" viewBox="0 0 48 48" height="64" preserveAspectRatio="xMidYMid meet" version="1.0"><defs><clipPath id="4822b7e653"><path d="M 0.488281 2.296875 L 47.507812 2.296875 L 47.507812 44.082031 L 0.488281 44.082031 Z M 0.488281 2.296875 " clip-rule="nonzero"/></clipPath><clipPath id="8feb972aa0"><path d="M 2.355469 9.507812 C -1.457031 15.789062 1.226562 21.902344 4.601562 25.148438 L 24.339844 44.082031 L 43.65625 25.214844 C 46.796875 21.722656 48 18.023438 47.332031 13.898438 C 46.410156 8.195312 41.707031 3.773438 35.902344 3.140625 C 32.34375 2.757812 28.902344 3.765625 26.21875 5.996094 C 25.496094 6.59375 24.851562 7.265625 24.289062 7.996094 C 23.621094 7.164062 22.835938 6.40625 21.949219 5.730469 C 18.863281 3.386719 14.933594 2.453125 11.160156 3.179688 C 7.585938 3.871094 4.375 6.175781 2.355469 9.507812 Z M 2.355469 9.507812 " clip-rule="nonzero"/></clipPath></defs><g clip-path="url(#4822b7e653)"><g clip-path="url(#8feb972aa0)"><path fill="#ffffff" d="M 0.488281 2.9375 L 47.511719 2.9375 L 47.511719 44.082031 L 0.488281 44.082031 Z M 0.488281 2.9375 " fill-opacity="1" fill-rule="nonzero"/></g></g></svg>