<svg xmlns="http://www.w3.org/2000/svg" xmlns:xlink="http://www.w3.org/1999/xlink" width="320" zoomAndPan="magnify" viewBox="0 0 240 187.499995" height="250" preserveAspectRatio="xMidYMid meet" version="1.0"><defs><g/><clipPath id="2b3f3a3901"><path d="M 74 0 L 239.679688 0 L 239.679688 151 L 74 151 Z M 74 0 " clip-rule="nonzero"/></clipPath></defs><g fill="#ffffff" fill-opacity="1"><g transform="translate(-0.17681, 150.96865)"><g><path d="M 3.21875 27.84375 L 2.390625 25.765625 C 12.703125 19.671875 17.859375 10.285156 17.859375 -2.390625 L 17.859375 -125.6875 C 17.859375 -133.507812 16.992188 -138.773438 15.265625 -141.484375 C 13.953125 -144.035156 10.003906 -147.082031 3.421875 -150.625 L 3.421875 -152.078125 L 76.140625 -152.078125 L 76.140625 -150.625 C 69.554688 -147.019531 65.503906 -143.972656 63.984375 -141.484375 C 62.460938 -138.773438 61.703125 -133.507812 61.703125 -125.6875 L 61.703125 -29.609375 C 61.703125 -8.003906 52.695312 7.679688 34.6875 17.453125 C 29.632812 20.148438 24.835938 22.207031 20.296875 23.625 C 15.765625 25.050781 10.070312 26.457031 3.21875 27.84375 Z M 3.21875 27.84375 "/></g></g></g><g clip-path="url(#2b3f3a3901)"><g fill="#ffffff" fill-opacity="1"><g transform="translate(71.670422, 150.96865)"><g><path d="M 61.28125 -26.390625 C 61.28125 -18.628906 62.046875 -13.296875 63.578125 -10.390625 C 65.097656 -7.960938 69.144531 -4.984375 75.71875 -1.453125 L 75.71875 0 L 3.015625 0 L 3.015625 -1.453125 C 9.734375 -4.984375 13.75 -8.03125 15.0625 -10.59375 C 16.789062 -13.5 17.65625 -18.765625 17.65625 -26.390625 L 17.65625 -125.6875 C 17.65625 -133.300781 16.789062 -138.566406 15.0625 -141.484375 C 13.75 -144.035156 9.734375 -147.082031 3.015625 -150.625 L 3.015625 -152.078125 L 75.71875 -152.078125 L 75.71875 -150.625 C 69.144531 -147.019531 65.097656 -143.972656 63.578125 -141.484375 C 62.046875 -138.773438 61.28125 -133.507812 61.28125 -125.6875 Z M 64.921875 -71.046875 L 107.203125 -113.21875 C 114.191406 -120.21875 117.6875 -126.867188 117.6875 -133.171875 C 117.6875 -140.367188 113.222656 -146.1875 104.296875 -150.625 L 104.296875 -152.078125 L 164.21875 -152.078125 L 164.21875 -150.625 C 161.039062 -148.882812 155.085938 -144.898438 146.359375 -138.671875 C 143.585938 -136.804688 140.125 -134.035156 135.96875 -130.359375 L 130.5625 -125.6875 L 126.109375 -121.640625 L 121.21875 -117.375 L 117.171875 -113.640625 L 97.21875 -95.359375 L 143.140625 -25.140625 C 151.453125 -12.117188 159.550781 -4.222656 167.4375 -1.453125 L 167.4375 0 L 107.828125 0 Z M 64.921875 -71.046875 "/></g></g></g></g></svg>