<?xml version="1.0" encoding="UTF-8"?>
<!-- Generator: Adobe Illustrator 23.1.1, SVG Export Plug-In . SVG Version: 6.00 Build 0)  -->
<svg version="1.1" id="Layer_1" xmlns="http://www.w3.org/2000/svg" xmlns:xlink="http://www.w3.org/1999/xlink" x="0px" y="0px" viewBox="0 0 196 46" style="enable-background:new 0 0 196 46;" xml:space="preserve">
<path d="M67.5,24.7c7.6-0.4,10.9-3.6,10.9-7.4v-2.8C78.3,10.4,74.6,7,66,7H49.8h-4.5V8c0,0,4.1,0.6,4.5,3.3v11.3v2.1v8.2  c-0.1,2.5-2.1,6-4.5,6.9c0.1,0.2,0.6,0.9,0.6,0.9c3.1-0.4,6-1.3,7.9-3.1c0,0,0.1-0.1,0.1-0.1c0,0,0.1,0.1,0.1,0.1  c1.9,1.8,4.8,2.7,7.9,3.1c0,0,0.5-0.7,0.6-0.9c-2.4-0.9-4.4-4.4-4.5-6.9v-8.1c16.3,0,3.9,18.5,25.8,16.3v-1.2  C73.9,38.5,81.5,26.1,67.5,24.7 M58.1,10.5c0.1-1.3,1.1-2.2,2.4-2.2h0h4.2c5.4,0.2,5.4,4.6,5.4,5.3V18c0,0.7,0,5.3-5.7,5.3l-6.3,0  V10.5z"/>
<path d="M184.5,7.2L184.5,7.2L184.5,7.2h-5.3v1.1c0,0,3.9,0.7,2,3.5l-6.4,10.4l-6.8-10.2h0c-2.1-3,2-3.7,2-3.7V7.2h-5.2l0,0l0,0  h-8.2h-3.1v1.1c0,0,3.9,0.6,6.1,3.3l8.3,11.9v9.8c-0.1,2.5-2.1,6-4.5,6.9c0.1,0.2,0.6,0.9,0.6,0.9c3.1-0.4,6-1.3,7.9-3.1  c0,0,0.1-0.1,0.1-0.1c0,0,0.1,0.1,0.1,0.1c1.9,1.8,4.8,2.7,7.9,3.1c0,0,0.5-0.7,0.6-0.9c-2.4-0.9-4.4-4.4-4.5-6.9v-9.8l7.2-11.9  c2.2-2.6,7.1-3.2,7.1-3.2V7.2h-3.1H184.5z"/>
<path d="M18.3,9.1L18.3,9.1c1.3,0,2.3,0.9,2.4,2.1v22.3c0,0,0,0,0,0c0,2.5-2,6.2-4.5,7.1c0.1,0.2,0.6,0.9,0.6,0.9  c3.1-0.4,6-1.3,7.9-3.1c0,0,0.1-0.1,0.1-0.1c0,0,0.1,0.1,0.1,0.1c1.9,1.8,4.8,2.7,7.9,3.1c0,0,0.5-0.7,0.6-0.9  c-2.3-0.9-4.2-4.2-4.5-6.6V11.2C29,10,30,9.1,31.3,9.1l0,0h5.4c1,0.1,1.4,1.6,1.9,2.6c1.1,2,3.1,3.6,4.8,4.1l0.7-0.7  c0,0-2.4-1.9-2.7-7.2V6.8h-1.1c0,0-0.7,0.9-3.6,0.9H12.9c-2.9,0-3.6-0.9-3.6-0.9H8.2v0.9C7.9,13.1,5.4,15,5.4,15l0.7,0.7  c1.6-0.5,3.6-2.1,4.8-4.1c0.5-1,0.9-2.5,1.9-2.6H18.3z"/>
<path d="M151,40L151,40c2.9,0,3.6,0.9,3.6,0.9h1.1v-3.1v-8.6h-1.1c0,0-0.9,9.3-8.2,9.3h-5h0c-1.3,0-2.3-0.9-2.4-2.2V12  c0-3,4.5-3.7,4.5-3.7V7.3H139l0,0v0h-8.2h-4.5v1.1c0,0,4.1,0.6,4.5,3.3v24.1c-0.4,2.6-4.5,3.3-4.5,3.3V40h4.5h8.2H151z"/>
<path d="M87.2,11.7v19.9c0,6.2,4.9,9.3,15.5,9.3h0h0c10.6,0,15.5-3.1,15.5-9.3v-20c0.3-2.7,4.5-3.4,4.5-3.4V7.2h-17.3v1.1  c0,0,4.3,0.7,4.5,3.4v19.9c0,3.8-0.6,8-7.3,8c-6.7,0-7.2-4.2-7.2-8v-20C95.8,9,100,8.3,100,8.3V7.2H82.7v1.1  C82.7,8.3,87,9,87.2,11.7"/>
</svg>