<svg xmlns="http://www.w3.org/2000/svg" xmlns:xlink="http://www.w3.org/1999/xlink" width="1400" zoomAndPan="magnify" viewBox="0 0 1050 187.499995" height="250" preserveAspectRatio="xMidYMid meet" version="1.0"><defs><g/><clipPath id="6ab0b6571b"><path d="M 1022.285156 58.769531 L 1033 58.769531 L 1033 72.234375 L 1022.285156 72.234375 Z M 1022.285156 58.769531 " clip-rule="nonzero"/></clipPath><clipPath id="245fc79080"><path d="M 1034 58.769531 L 1047.71875 58.769531 L 1047.71875 72.234375 L 1034 72.234375 Z M 1034 58.769531 " clip-rule="nonzero"/></clipPath></defs><g fill="#ffffff" fill-opacity="1"><g transform="translate(908.277414, 143.16594)"><g><path d="M 73.828125 -84.359375 L 107.375 -84.359375 L 41.109375 42.75 L 7.5625 42.75 L 36.671875 -13.15625 L -3.28125 -84.359375 L 30.25 -84.359375 L 53.765625 -41.109375 Z M 73.828125 -84.359375 "/></g></g></g><g clip-path="url(#6ab0b6571b)"><path fill="#ffffff" d="M 1028.335938 72.15625 L 1026.660156 72.15625 C 1026.378906 72.15625 1026.148438 71.925781 1026.148438 71.640625 L 1026.148438 61.4375 L 1022.792969 61.4375 C 1022.511719 61.4375 1022.285156 61.203125 1022.285156 60.917969 L 1022.285156 59.363281 C 1022.285156 59.078125 1022.511719 58.847656 1022.792969 58.847656 L 1032.203125 58.847656 C 1032.484375 58.847656 1032.710938 59.078125 1032.710938 59.363281 L 1032.710938 60.917969 C 1032.710938 61.203125 1032.484375 61.4375 1032.203125 61.4375 L 1028.847656 61.4375 L 1028.847656 71.640625 C 1028.847656 71.925781 1028.617188 72.15625 1028.335938 72.15625 Z M 1028.335938 72.15625 " fill-opacity="1" fill-rule="nonzero"/></g><g clip-path="url(#245fc79080)"><path fill="#ffffff" d="M 1047.207031 72.15625 L 1045.582031 72.15625 C 1045.300781 72.15625 1045.070312 71.925781 1045.070312 71.640625 L 1045.070312 64.042969 L 1041.929688 71.835938 C 1041.851562 72.03125 1041.667969 72.15625 1041.460938 72.15625 L 1040.390625 72.15625 C 1040.1875 72.15625 1040 72.03125 1039.921875 71.835938 L 1036.78125 64.042969 L 1036.78125 71.640625 C 1036.78125 71.925781 1036.554688 72.15625 1036.273438 72.15625 L 1034.644531 72.15625 C 1034.363281 72.15625 1034.136719 71.925781 1034.136719 71.640625 L 1034.136719 59.363281 C 1034.136719 59.078125 1034.363281 58.847656 1034.644531 58.847656 L 1037.085938 58.847656 C 1037.292969 58.847656 1037.476562 58.972656 1037.554688 59.164062 L 1040.925781 67.359375 L 1044.296875 59.164062 C 1044.378906 58.972656 1044.5625 58.847656 1044.765625 58.847656 L 1047.207031 58.847656 C 1047.488281 58.847656 1047.71875 59.078125 1047.71875 59.363281 L 1047.71875 71.640625 C 1047.71875 71.925781 1047.488281 72.15625 1047.207031 72.15625 Z M 1047.207031 72.15625 " fill-opacity="1" fill-rule="nonzero"/></g><g fill="#ffffff" fill-opacity="1"><g transform="translate(-6.96936, 143.16594)"><g><path d="M 96.6875 -73.828125 C 104.582031 -65.171875 108.53125 -54.59375 108.53125 -42.09375 C 108.53125 -29.59375 104.582031 -19.039062 96.6875 -10.4375 C 88.789062 -1.832031 78.757812 2.46875 66.59375 2.46875 C 55.414062 2.46875 46.207031 -1.53125 38.96875 -9.53125 L 38.640625 -9.53125 L 38.640625 0 L 9.859375 0 L 9.859375 -141.421875 L 38.96875 -141.421875 L 38.96875 -76.296875 C 46.207031 -83.316406 55.414062 -86.828125 66.59375 -86.828125 C 78.757812 -86.828125 88.789062 -82.492188 96.6875 -73.828125 Z M 72.1875 -27.859375 C 75.800781 -31.535156 77.609375 -36.28125 77.609375 -42.09375 C 77.609375 -47.90625 75.71875 -52.675781 71.9375 -56.40625 C 68.15625 -60.132812 63.46875 -62 57.875 -62 C 52.394531 -62 47.765625 -60.132812 43.984375 -56.40625 C 40.203125 -52.675781 38.3125 -47.90625 38.3125 -42.09375 C 38.3125 -36.394531 40.144531 -31.679688 43.8125 -27.953125 C 47.488281 -24.222656 52.175781 -22.359375 57.875 -22.359375 C 63.800781 -22.359375 68.570312 -24.191406 72.1875 -27.859375 Z M 72.1875 -27.859375 "/></g></g></g><g fill="#ffffff" fill-opacity="1"><g transform="translate(100.24173, 143.16594)"><g><path d="M 9.859375 0 L 9.859375 -141.421875 L 38.96875 -141.421875 L 38.96875 0 Z M 9.859375 0 "/></g></g></g><g fill="#ffffff" fill-opacity="1"><g transform="translate(143.980979, 143.16594)"><g><path d="M 37.328125 -84.359375 L 37.328125 -44.234375 C 37.328125 -35.898438 38.585938 -29.976562 41.109375 -26.46875 C 43.628906 -22.96875 47.90625 -21.21875 53.9375 -21.21875 C 59.96875 -21.21875 64.242188 -22.96875 66.765625 -26.46875 C 69.285156 -29.976562 70.546875 -35.898438 70.546875 -44.234375 L 70.546875 -84.359375 L 99.65625 -84.359375 L 99.65625 -37.15625 C 99.65625 -23.125 96.007812 -13.007812 88.71875 -6.8125 C 81.425781 -0.625 69.832031 2.46875 53.9375 2.46875 C 38.039062 2.46875 26.445312 -0.625 19.15625 -6.8125 C 11.863281 -13.007812 8.21875 -23.125 8.21875 -37.15625 L 8.21875 -84.359375 Z M 37.328125 -84.359375 "/></g></g></g><g fill="#ffffff" fill-opacity="1"><g transform="translate(246.752333, 143.16594)"><g><path d="M 9.859375 0 L 9.859375 -84.359375 L 38.96875 -84.359375 L 38.96875 -72.1875 L 39.296875 -72.1875 C 39.515625 -72.625 39.867188 -73.171875 40.359375 -73.828125 C 40.859375 -74.484375 41.929688 -75.632812 43.578125 -77.28125 C 45.222656 -78.925781 46.976562 -80.40625 48.84375 -81.71875 C 50.707031 -83.039062 53.117188 -84.222656 56.078125 -85.265625 C 59.035156 -86.304688 62.050781 -86.828125 65.125 -86.828125 C 68.300781 -86.828125 71.421875 -86.382812 74.484375 -85.5 C 77.554688 -84.625 79.804688 -83.75 81.234375 -82.875 L 83.53125 -81.5625 L 71.359375 -56.890625 C 67.742188 -59.960938 62.703125 -61.5 56.234375 -61.5 C 52.722656 -61.5 49.707031 -60.726562 47.1875 -59.1875 C 44.664062 -57.65625 42.882812 -55.789062 41.84375 -53.59375 C 40.800781 -51.40625 40.0625 -49.546875 39.625 -48.015625 C 39.1875 -46.484375 38.96875 -45.273438 38.96875 -44.390625 L 38.96875 0 Z M 9.859375 0 "/></g></g></g><g fill="#ffffff" fill-opacity="1"><g transform="translate(351.54056, 143.16594)"><g><path d="M 9.859375 0 L 9.859375 -141.421875 L 38.96875 -141.421875 L 38.96875 0 Z M 9.859375 0 "/></g></g></g><g fill="#ffffff" fill-opacity="1"><g transform="translate(395.279806, 143.16594)"><g><path d="M 15.625 -10.4375 C 7.726562 -19.039062 3.78125 -29.59375 3.78125 -42.09375 C 3.78125 -54.59375 7.726562 -65.171875 15.625 -73.828125 C 23.519531 -82.492188 33.550781 -86.828125 45.71875 -86.828125 C 56.894531 -86.828125 66.101562 -83.316406 73.34375 -76.296875 L 73.34375 -84.359375 L 102.4375 -84.359375 L 102.4375 0 L 73.671875 0 L 73.671875 -9.53125 L 73.34375 -9.53125 C 66.101562 -1.53125 56.894531 2.46875 45.71875 2.46875 C 33.550781 2.46875 23.519531 -1.832031 15.625 -10.4375 Z M 40.375 -56.40625 C 36.59375 -52.675781 34.703125 -47.90625 34.703125 -42.09375 C 34.703125 -36.28125 36.507812 -31.535156 40.125 -27.859375 C 43.738281 -24.191406 48.503906 -22.359375 54.421875 -22.359375 C 60.128906 -22.359375 64.816406 -24.222656 68.484375 -27.953125 C 72.160156 -31.679688 74 -36.394531 74 -42.09375 C 74 -47.90625 72.109375 -52.675781 68.328125 -56.40625 C 64.546875 -60.132812 59.910156 -62 54.421875 -62 C 48.835938 -62 44.15625 -60.132812 40.375 -56.40625 Z M 40.375 -56.40625 "/></g></g></g><g fill="#ffffff" fill-opacity="1"><g transform="translate(502.490896, 143.16594)"><g><path d="M 37.328125 -84.359375 L 37.328125 -44.234375 C 37.328125 -35.898438 38.585938 -29.976562 41.109375 -26.46875 C 43.628906 -22.96875 47.90625 -21.21875 53.9375 -21.21875 C 59.96875 -21.21875 64.242188 -22.96875 66.765625 -26.46875 C 69.285156 -29.976562 70.546875 -35.898438 70.546875 -44.234375 L 70.546875 -84.359375 L 99.65625 -84.359375 L 99.65625 -37.15625 C 99.65625 -23.125 96.007812 -13.007812 88.71875 -6.8125 C 81.425781 -0.625 69.832031 2.46875 53.9375 2.46875 C 38.039062 2.46875 26.445312 -0.625 19.15625 -6.8125 C 11.863281 -13.007812 8.21875 -23.125 8.21875 -37.15625 L 8.21875 -84.359375 Z M 37.328125 -84.359375 "/></g></g></g><g fill="#ffffff" fill-opacity="1"><g transform="translate(605.090796, 143.16594)"><g><path d="M 9.859375 0 L 9.859375 -84.359375 L 38.96875 -84.359375 L 38.96875 -75.484375 L 39.296875 -75.484375 C 46.859375 -83.046875 54.914062 -86.828125 63.46875 -86.828125 C 67.632812 -86.828125 71.769531 -86.273438 75.875 -85.171875 C 79.988281 -84.078125 83.9375 -82.378906 87.71875 -80.078125 C 91.507812 -77.773438 94.582031 -74.515625 96.9375 -70.296875 C 99.289062 -66.078125 100.46875 -61.171875 100.46875 -55.578125 L 100.46875 0 L 71.359375 0 L 71.359375 -47.6875 C 71.359375 -52.070312 69.960938 -55.90625 67.171875 -59.1875 C 64.378906 -62.476562 60.734375 -64.125 56.234375 -64.125 C 51.847656 -64.125 47.875 -62.425781 44.3125 -59.03125 C 40.75 -55.632812 38.96875 -51.851562 38.96875 -47.6875 L 38.96875 0 Z M 9.859375 0 "/></g></g></g><g fill="#ffffff" fill-opacity="1"><g transform="translate(708.684317, 143.16594)"><g><path d="M 15.625 -10.4375 C 7.726562 -19.039062 3.78125 -29.59375 3.78125 -42.09375 C 3.78125 -54.59375 7.726562 -65.171875 15.625 -73.828125 C 23.519531 -82.492188 33.550781 -86.828125 45.71875 -86.828125 C 56.894531 -86.828125 66.101562 -83.316406 73.34375 -76.296875 L 73.34375 -141.421875 L 102.4375 -141.421875 L 102.4375 0 L 73.671875 0 L 73.671875 -9.53125 L 73.34375 -9.53125 C 66.101562 -1.53125 56.894531 2.46875 45.71875 2.46875 C 33.550781 2.46875 23.519531 -1.832031 15.625 -10.4375 Z M 40.375 -56.40625 C 36.59375 -52.675781 34.703125 -47.90625 34.703125 -42.09375 C 34.703125 -36.28125 36.507812 -31.535156 40.125 -27.859375 C 43.738281 -24.191406 48.503906 -22.359375 54.421875 -22.359375 C 60.128906 -22.359375 64.816406 -24.222656 68.484375 -27.953125 C 72.160156 -31.679688 74 -36.394531 74 -42.09375 C 74 -47.90625 72.109375 -52.675781 68.328125 -56.40625 C 64.546875 -60.132812 59.910156 -62 54.421875 -62 C 48.835938 -62 44.15625 -60.132812 40.375 -56.40625 Z M 40.375 -56.40625 "/></g></g></g><g fill="#ffffff" fill-opacity="1"><g transform="translate(815.73047, 143.16594)"><g><path d="M 9.859375 0 L 9.859375 -84.359375 L 38.96875 -84.359375 L 38.96875 -72.1875 L 39.296875 -72.1875 C 39.515625 -72.625 39.867188 -73.171875 40.359375 -73.828125 C 40.859375 -74.484375 41.929688 -75.632812 43.578125 -77.28125 C 45.222656 -78.925781 46.976562 -80.40625 48.84375 -81.71875 C 50.707031 -83.039062 53.117188 -84.222656 56.078125 -85.265625 C 59.035156 -86.304688 62.050781 -86.828125 65.125 -86.828125 C 68.300781 -86.828125 71.421875 -86.382812 74.484375 -85.5 C 77.554688 -84.625 79.804688 -83.75 81.234375 -82.875 L 83.53125 -81.5625 L 71.359375 -56.890625 C 67.742188 -59.960938 62.703125 -61.5 56.234375 -61.5 C 52.722656 -61.5 49.707031 -60.726562 47.1875 -59.1875 C 44.664062 -57.65625 42.882812 -55.789062 41.84375 -53.59375 C 40.800781 -51.40625 40.0625 -49.546875 39.625 -48.015625 C 39.1875 -46.484375 38.96875 -45.273438 38.96875 -44.390625 L 38.96875 0 Z M 9.859375 0 "/></g></g></g></svg>