<svg xmlns="http://www.w3.org/2000/svg" xmlns:xlink="http://www.w3.org/1999/xlink" width="64" zoomAndPan="magnify" viewBox="0 0 48 48" height="64" preserveAspectRatio="xMidYMid meet" version="1.0"><defs><clipPath id="9d0deb2882"><path d="M 0.488281 2.886719 L 47.507812 2.886719 L 47.507812 44.164062 L 0.488281 44.164062 Z M 0.488281 2.886719 " clip-rule="nonzero"/></clipPath></defs><g clip-path="url(#9d0deb2882)"><path fill="#ffffff" d="M 0.488281 21 L 0.488281 23.332031 C 0.488281 23.433594 0.550781 23.542969 0.566406 23.652344 C 0.898438 27.011719 2.230469 30.195312 4.382812 32.789062 C 7.210938 36.285156 10.832031 38.589844 15.066406 40.027344 C 17.832031 40.96875 20.730469 41.445312 23.652344 41.441406 C 26.105469 41.410156 28.550781 41.207031 30.976562 40.835938 C 31.375 40.757812 31.792969 40.835938 32.148438 41.042969 C 34.738281 42.605469 37.617188 43.609375 40.613281 44 C 41.621094 44.125 42.628906 44.179688 43.644531 44.164062 C 43.984375 44.152344 44.304688 44.023438 44.554688 43.792969 C 44.804688 43.5625 44.964844 43.25 45 42.917969 C 45.039062 42.582031 44.960938 42.246094 44.769531 41.960938 C 44.636719 41.753906 44.492188 41.546875 44.328125 41.355469 C 42.996094 39.699219 41.871094 37.886719 40.972656 35.957031 C 40.910156 35.871094 40.886719 35.757812 40.902344 35.648438 C 40.921875 35.542969 40.988281 35.445312 41.082031 35.386719 C 42.71875 33.988281 44.113281 32.332031 45.207031 30.480469 C 46.132812 28.914062 46.789062 27.203125 47.152344 25.421875 C 47.289062 24.734375 47.394531 24.011719 47.511719 23.332031 L 47.511719 21 C 47.476562 20.867188 47.449219 20.738281 47.425781 20.601562 C 47.144531 17.828125 46.171875 15.171875 44.605469 12.867188 C 42.878906 10.359375 40.636719 8.257812 38.023438 6.703125 C 35.503906 5.171875 32.738281 4.085938 29.847656 3.503906 C 25.335938 2.539062 20.652344 2.703125 16.214844 3.96875 C 13.707031 4.671875 11.328125 5.769531 9.160156 7.214844 C 6.753906 8.796875 4.714844 10.863281 3.15625 13.277344 C 2.050781 14.980469 1.265625 16.875 0.855469 18.863281 C 0.714844 19.574219 0.609375 20.289062 0.488281 21 " fill-opacity="1" fill-rule="nonzero"/></g></svg>
