<svg xmlns="http://www.w3.org/2000/svg" xmlns:xlink="http://www.w3.org/1999/xlink" width="64" zoomAndPan="magnify" viewBox="0 0 48 48" height="64" preserveAspectRatio="xMidYMid meet" version="1.0"><defs><clipPath id="c9a4a8ad0c"><path d="M 0.488281 0 L 47.507812 0 L 47.507812 47.019531 L 0.488281 47.019531 Z M 0.488281 0 " clip-rule="nonzero"/></clipPath><clipPath id="ed4135fd40"><path d="M 2.347656 7.429688 L 17 7.429688 L 17 40 L 2.347656 40 Z M 2.347656 7.429688 " clip-rule="nonzero"/></clipPath><clipPath id="acef6a006c"><path d="M 15.710938 7.476562 L 45.636719 7.476562 L 45.636719 34.617188 L 15.710938 34.617188 Z M 15.710938 7.476562 " clip-rule="nonzero"/></clipPath></defs><g clip-path="url(#c9a4a8ad0c)"><path fill="#ffffff" d="M 0.488281 0 L 47.511719 0 L 47.511719 47.019531 L 0.488281 47.019531 Z M 0.488281 0 " fill-opacity="1" fill-rule="nonzero"/><path fill="#000000" d="M 0.488281 0 L 47.511719 0 L 47.511719 47.019531 L 0.488281 47.019531 Z M 0.488281 0 " fill-opacity="1" fill-rule="nonzero"/></g><g clip-path="url(#ed4135fd40)"><path fill="#ffffff" d="M 2.894531 39.617188 L 2.746094 39.246094 C 4.609375 38.148438 5.539062 36.460938 5.539062 34.183594 L 5.539062 12.019531 C 5.539062 10.613281 5.382812 9.667969 5.070312 9.179688 C 4.835938 8.722656 4.121094 8.175781 2.933594 7.539062 L 2.933594 7.277344 L 16.066406 7.277344 L 16.066406 7.539062 C 14.878906 8.1875 14.144531 8.734375 13.871094 9.179688 C 13.597656 9.667969 13.460938 10.613281 13.460938 12.019531 L 13.460938 29.289062 C 13.460938 33.175781 11.832031 35.992188 8.578125 37.75 C 7.667969 38.234375 6.800781 38.605469 5.980469 38.859375 C 5.164062 39.117188 4.132812 39.367188 2.894531 39.617188 Z M 2.894531 39.617188 " fill-opacity="1" fill-rule="nonzero"/></g><g clip-path="url(#acef6a006c)"><path fill="#ffffff" d="M 26.359375 29.871094 C 26.359375 31.265625 26.496094 32.222656 26.773438 32.746094 C 27.046875 33.183594 27.78125 33.71875 28.96875 34.351562 L 28.96875 34.613281 L 15.835938 34.613281 L 15.835938 34.351562 C 17.050781 33.71875 17.773438 33.167969 18.011719 32.707031 C 18.324219 32.1875 18.480469 31.238281 18.480469 29.871094 L 18.480469 12.019531 C 18.480469 10.652344 18.324219 9.707031 18.011719 9.179688 C 17.773438 8.722656 17.050781 8.175781 15.835938 7.539062 L 15.835938 7.277344 L 28.96875 7.277344 L 28.96875 7.539062 C 27.78125 8.1875 27.046875 8.734375 26.773438 9.179688 C 26.496094 9.667969 26.359375 10.613281 26.359375 12.019531 Z M 27.015625 21.84375 L 34.652344 14.261719 C 35.914062 13.003906 36.546875 11.808594 36.546875 10.675781 C 36.546875 9.382812 35.742188 8.335938 34.128906 7.539062 L 34.128906 7.277344 L 44.949219 7.277344 L 44.949219 7.539062 C 44.375 7.851562 43.300781 8.566406 41.726562 9.6875 C 41.222656 10.023438 40.597656 10.519531 39.847656 11.179688 L 38.871094 12.019531 L 38.066406 12.75 L 37.183594 13.515625 L 36.453125 14.1875 L 32.851562 17.472656 L 41.144531 30.09375 C 42.644531 32.433594 44.109375 33.855469 45.53125 34.351562 L 45.53125 34.613281 L 34.765625 34.613281 Z M 27.015625 21.84375 " fill-opacity="1" fill-rule="nonzero"/></g></svg>
